; NON-PLATED HOLES START AT T1
; THROUGH (PLATED) HOLES START AT T100
M48
INCH
T100C0.038000
T101C0.035000
T102C0.040278
%
T100
X012092Y004012
X016592Y007512
X020592Y013512
X019592Y013512
X024092Y002512
X006092Y006012
X002092Y006012
X018592Y015012
X022592Y013512
X014592Y007512
X020592Y007512
X021592Y013512
X016092Y004012
X011092Y006012
X024592Y007512
X023592Y013512
X023592Y007512
X014592Y013512
X013092Y006012
X017092Y004012
X009092Y006012
X011092Y016012
X019592Y007512
X009592Y016012
X008092Y006012
X015092Y004012
X014092Y016012
X013092Y004012
X021592Y007512
X021092Y002512
X018092Y004012
X010092Y006012
X018592Y007512
X024592Y013512
X005092Y006012
X014092Y006012
X020092Y004012
X019092Y004012
X022092Y004012
X015592Y007512
X021092Y004012
X012092Y006012
X016592Y013512
X015092Y006012
X017092Y016012
X025092Y002512
X022092Y002512
X014092Y004012
X020092Y002512
X023092Y002512
X022592Y007512
X023092Y004012
X017592Y007512
X017592Y013512
X025092Y004012
X015592Y013512
X023092Y015012
X015592Y016012
X003092Y006012
X018592Y013512
X001092Y006012
X021592Y015012
X012592Y016012
X004092Y006012
X024092Y004012
X007092Y006012
X020092Y015012
T101
X009092Y011512
X001092Y007512
X007092Y011512
X001092Y011512
X003092Y011512
X004092Y011512
X005092Y011512
X004092Y007512
X006092Y011512
X010092Y007512
X003092Y007512
X007092Y007512
X010092Y011512
X008092Y011512
X002092Y011512
X009092Y007512
X006092Y007512
X008092Y007512
X002092Y007512
X005092Y007512
T102
X019093Y020012
X021093Y020012
X011493Y020012
X014093Y001012
X008493Y020012
X022092Y020012
X023093Y001012
X009493Y020012
X013493Y020012
X018093Y020012
X020093Y001012
X022092Y001012
X018093Y001012
X020093Y020012
X024093Y020012
X016093Y001012
X012093Y001012
X016492Y020012
X024093Y001012
X025093Y020012
X023093Y020012
X021093Y001012
X015093Y001012
X014493Y020012
X015493Y020012
X013093Y001012
X012493Y020012
X017092Y001012
X011093Y001012
X007492Y020012
X010493Y020012
X025093Y001012
T00
M30
