; NON-PLATED HOLES START AT T1
; THROUGH (PLATED) HOLES START AT T100
M48
INCH
T100C0.038000
T101C0.035000
T102C0.040278
%
T100
X024592Y007537
X025092Y004037
X022092Y004037
X006092Y006037
X023092Y002537
X022592Y007537
X020092Y004037
X023092Y015037
X021092Y002537
X013092Y006037
X007092Y006037
X009092Y006037
X003092Y006037
X015092Y006037
X011092Y006037
X019092Y004037
X014092Y006037
X015592Y013537
X005092Y006037
X014092Y016037
X017592Y013537
X015592Y016037
X010092Y006037
X016592Y007537
X023092Y004037
X018592Y015037
X012092Y004037
X021592Y013537
X014092Y004037
X018592Y013537
X024592Y013537
X013092Y004037
X016092Y004037
X017092Y016037
X009592Y016037
X022592Y013537
X017592Y007537
X020092Y002537
X002092Y006037
X021592Y015037
X011092Y016037
X020592Y013537
X014592Y007537
X001092Y006037
X025092Y002537
X015092Y004037
X023592Y007537
X012092Y006037
X018592Y007537
X019592Y007537
X020592Y007537
X019592Y013537
X017092Y004037
X022092Y002537
X012592Y016037
X014592Y013537
X024092Y002537
X015592Y007537
X021592Y007537
X023592Y013537
X020092Y015037
X016592Y013537
X018092Y004037
X008092Y006037
X021092Y004037
X024092Y004037
X004092Y006037
T101
X002092Y007537
X001092Y007537
X006092Y011537
X010092Y011537
X003092Y011537
X007092Y011537
X002092Y011537
X007092Y007537
X005092Y011537
X004092Y011537
X009092Y011537
X006092Y007537
X003092Y007537
X004092Y007537
X005092Y007537
X008092Y011537
X008092Y007537
X009092Y007537
X010092Y007537
X001092Y011537
T102
X016093Y001037
X009493Y020037
X019093Y020037
X024093Y020037
X011493Y020037
X022092Y020037
X013493Y020037
X020093Y020037
X020093Y001037
X008493Y020037
X018093Y020037
X021093Y020037
X015493Y020037
X012093Y001037
X022092Y001037
X024093Y001037
X016492Y020037
X023093Y001037
X013093Y001037
X010493Y020037
X025093Y001037
X012493Y020037
X015093Y001037
X025093Y020037
X014093Y001037
X007492Y020037
X014493Y020037
X017092Y001037
X021093Y001037
X011093Y001037
X023093Y020037
X018093Y001037
T00
M30
