; NON-PLATED HOLES START AT T1
; THROUGH (PLATED) HOLES START AT T100
M48
INCH
T100C0.025000
T101C0.035000
T102C0.038000
%
T100
X005790Y015031
X002290Y013457
X002290Y012669
X005790Y014243
X002290Y014243
X005790Y013457
X002290Y015031
X005790Y012669
T101
X011290Y015457
X013290Y012457
X007290Y015457
X012290Y013957
X008290Y013957
X009290Y012457
T102
X016790Y010457
X007683Y019957
X007790Y004457
X013790Y010457
X006290Y000957
X017790Y010457
X012290Y019957
X008290Y000957
X014290Y019957
X013790Y004457
X009683Y019957
X012790Y004457
X016290Y019957
X009790Y004457
X007290Y000957
X017290Y000957
X002683Y019957
X003683Y019957
X008790Y010457
X005683Y019957
X009790Y010457
X001683Y019957
X014790Y004457
X017790Y004457
X014790Y010457
X000683Y019957
X012790Y010457
X017290Y019957
X008790Y004457
X011790Y010457
X004683Y019957
X016290Y000957
X004290Y000957
X015290Y000957
X015790Y004457
X011290Y019957
X015290Y019957
X013290Y000957
X015790Y010457
X013290Y019957
X009290Y000957
X016790Y004457
X014290Y000957
X006683Y019957
X005290Y000957
X010790Y004457
X007790Y010457
X018290Y000957
X011290Y000957
X010290Y000957
X011790Y004457
X018290Y019957
X010790Y010457
X008683Y019957
T00
M30
