G04 MADE WITH FRITZING*
G04 WWW.FRITZING.ORG*
G04 DOUBLE SIDED*
G04 HOLES PLATED*
G04 CONTOUR ON CENTER OF CONTOUR VECTOR*
%ASAXBY*%
%FSLAX23Y23*%
%MOIN*%
%OFA0B0*%
%SFA1.0B1.0*%
%ADD10C,0.088000*%
%ADD11C,0.075000*%
%ADD12C,0.085000*%
%LNMASK0*%
G90*
G70*
G54D10*
X968Y1996D03*
X868Y1996D03*
X768Y1996D03*
X668Y1996D03*
X568Y1996D03*
X468Y1996D03*
X368Y1996D03*
X268Y1996D03*
X168Y1996D03*
X68Y1996D03*
X1129Y96D03*
X1029Y96D03*
X929Y96D03*
X829Y96D03*
X729Y96D03*
X629Y96D03*
X529Y96D03*
X429Y96D03*
X1829Y96D03*
X1729Y96D03*
X1629Y96D03*
X1529Y96D03*
X1429Y96D03*
X1329Y96D03*
X1829Y1996D03*
X1729Y1996D03*
X1629Y1996D03*
X1529Y1996D03*
X1429Y1996D03*
X1329Y1996D03*
X1229Y1996D03*
X1129Y1996D03*
X1779Y446D03*
X1679Y446D03*
X1579Y446D03*
X1479Y446D03*
X1379Y446D03*
X1279Y446D03*
X1179Y446D03*
X1079Y446D03*
X979Y446D03*
X879Y446D03*
X779Y446D03*
X1779Y1046D03*
X1679Y1046D03*
X1579Y1046D03*
X1479Y1046D03*
X1379Y1046D03*
X1279Y1046D03*
X1179Y1046D03*
X1079Y1046D03*
X979Y1046D03*
X879Y1046D03*
X779Y1046D03*
G54D11*
X229Y1267D03*
X229Y1346D03*
X229Y1424D03*
X229Y1503D03*
X579Y1267D03*
X579Y1346D03*
X579Y1424D03*
X579Y1503D03*
G54D12*
X1329Y1246D03*
X929Y1246D03*
X1229Y1396D03*
X829Y1396D03*
X1129Y1546D03*
X729Y1546D03*
G04 End of Mask0*
M02*