G04 MADE WITH FRITZING*
G04 WWW.FRITZING.ORG*
G04 DOUBLE SIDED*
G04 HOLES PLATED*
G04 CONTOUR ON CENTER OF CONTOUR VECTOR*
%ASAXBY*%
%FSLAX23Y23*%
%MOIN*%
%OFA0B0*%
%SFA1.0B1.0*%
%ADD10C,0.075000*%
%ADD11C,0.078000*%
%ADD12C,0.177165*%
%ADD13C,0.125984*%
%ADD14R,0.125984X0.125984*%
%ADD15C,0.048000*%
%LNCOPPER0*%
G90*
G70*
G54D10*
X1644Y738D03*
X1244Y738D03*
X1644Y888D03*
X1244Y888D03*
X1644Y1038D03*
X1244Y1038D03*
G54D11*
X1044Y738D03*
X1044Y838D03*
X1044Y938D03*
X1044Y1038D03*
X794Y738D03*
X794Y838D03*
X794Y938D03*
X794Y1038D03*
G54D12*
X144Y1638D03*
X144Y1438D03*
X144Y1238D03*
G54D11*
X1594Y1438D03*
X1494Y1438D03*
X1394Y1438D03*
X1294Y1438D03*
X1194Y1438D03*
X1094Y1438D03*
X994Y1438D03*
X894Y1438D03*
X794Y1438D03*
X1333Y1988D03*
X1233Y1988D03*
X1133Y1988D03*
X1033Y1988D03*
X933Y1988D03*
X833Y1988D03*
X733Y1988D03*
X633Y1988D03*
X533Y1988D03*
X433Y1988D03*
X1494Y88D03*
X1394Y88D03*
X1294Y88D03*
X1194Y88D03*
X1094Y88D03*
X994Y88D03*
X894Y88D03*
X794Y88D03*
X2194Y88D03*
X2094Y88D03*
X1994Y88D03*
X1894Y88D03*
X1794Y88D03*
X1694Y88D03*
X2194Y1988D03*
X2094Y1988D03*
X1994Y1988D03*
X1894Y1988D03*
X1794Y1988D03*
X1694Y1988D03*
X1594Y1988D03*
X1494Y1988D03*
G54D13*
X294Y738D03*
X294Y938D03*
G54D10*
X1394Y1688D03*
X1794Y1838D03*
X1194Y288D03*
X1594Y1188D03*
G54D14*
X294Y738D03*
G54D15*
X835Y838D02*
X1002Y838D01*
D02*
X1002Y1038D02*
X835Y1038D01*
D02*
X1002Y938D02*
X835Y938D01*
D02*
X1002Y738D02*
X835Y738D01*
D02*
X1204Y1038D02*
X1085Y1038D01*
D02*
X1205Y898D02*
X1084Y928D01*
D02*
X1204Y738D02*
X1085Y738D01*
D02*
X796Y1479D02*
X830Y1947D01*
D02*
X896Y1479D02*
X930Y1947D01*
D02*
X996Y1479D02*
X1030Y1947D01*
D02*
X1093Y1788D02*
X1344Y1888D01*
D02*
X1344Y1888D02*
X1337Y1947D01*
D02*
X1094Y1480D02*
X1093Y1788D01*
D02*
X1193Y1480D02*
X1192Y1739D01*
D02*
X1493Y1838D02*
X1493Y1947D01*
D02*
X1192Y1739D02*
X1493Y1838D01*
D02*
X1744Y1587D02*
X1744Y1039D01*
D02*
X1744Y1039D02*
X1683Y1039D01*
D02*
X1595Y1587D02*
X1744Y1587D01*
D02*
X1594Y1947D02*
X1595Y1587D01*
D02*
X1843Y887D02*
X1683Y888D01*
D02*
X1843Y1689D02*
X1843Y887D01*
D02*
X1694Y1689D02*
X1843Y1689D01*
D02*
X1694Y1947D02*
X1694Y1689D01*
D02*
X1945Y739D02*
X1683Y738D01*
D02*
X1945Y1788D02*
X1945Y739D01*
D02*
X1904Y1948D02*
X1945Y1788D01*
D02*
X1394Y1480D02*
X1394Y1649D01*
D02*
X1794Y1958D02*
X1794Y1867D01*
D02*
X1493Y1287D02*
X1493Y1397D01*
D02*
X644Y1287D02*
X1493Y1287D01*
D02*
X644Y1739D02*
X644Y1287D01*
D02*
X723Y1960D02*
X644Y1739D01*
D02*
X723Y1960D02*
X644Y1739D01*
D02*
X644Y1739D02*
X644Y838D01*
D02*
X644Y838D02*
X752Y838D01*
D02*
X1194Y130D02*
X1194Y249D01*
D02*
X1594Y1397D02*
X1594Y1228D01*
D02*
X294Y1237D02*
X202Y1238D01*
D02*
X294Y973D02*
X294Y1237D01*
D02*
X542Y739D02*
X542Y1439D01*
D02*
X542Y1439D02*
X202Y1438D01*
D02*
X328Y738D02*
X542Y739D01*
G04 End of Copper0*
M02*