; NON-PLATED HOLES START AT T1
; THROUGH (PLATED) HOLES START AT T100
M48
INCH
T100C0.038000
T101C0.098425
T102C0.047244
T103C0.035000
%
T100
X005328Y019882
X011935Y000882
X010435Y008382
X007935Y000882
X019935Y019882
X017935Y000882
X011328Y019882
X008935Y014382
X007935Y007382
X016935Y000882
X009328Y019882
X014935Y000882
X016935Y019882
X015935Y019882
X012328Y019882
X020935Y019882
X006328Y019882
X015935Y014382
X018935Y000882
X007935Y010382
X010328Y019882
X010935Y000882
X007935Y009382
X020935Y000882
X007328Y019882
X014935Y014382
X013935Y014382
X010435Y010382
X010435Y009382
X009935Y014382
X021935Y019882
X012935Y000882
X004328Y019882
X011935Y014382
X008935Y000882
X007935Y014382
X014935Y019882
X019935Y000882
X013935Y000882
X009935Y000882
X013328Y019882
X008328Y019882
X010435Y007382
X012935Y014382
X007935Y008382
X017935Y019882
X010935Y014382
X021935Y000882
X018935Y019882
T101
X001435Y016382
X001435Y012382
X001435Y014382
T102
X002935Y007382
X002935Y009382
T103
X015935Y011882
X012435Y007382
X016435Y007382
X016435Y008882
X012435Y010382
X017935Y018382
X011935Y002882
X012435Y008882
X013935Y016882
X016435Y010382
T00
M30
