G04 MADE WITH FRITZING*
G04 WWW.FRITZING.ORG*
G04 SINGLE SIDED*
G04 HOLES NOT PLATED*
G04 CONTOUR ON CENTER OF CONTOUR VECTOR*
%ASAXBY*%
%FSLAX23Y23*%
%MOIN*%
%OFA0B0*%
%SFA1.0B1.0*%
%ADD10C,0.075000*%
%ADD11C,0.078000*%
%ADD12C,0.065278*%
%ADD13C,0.048000*%
%ADD14R,0.001000X0.001000*%
%LNCOPPER0*%
G90*
G70*
G54D10*
X1009Y1154D03*
X1009Y754D03*
G54D11*
X959Y1604D03*
X2509Y254D03*
X2409Y254D03*
G54D10*
X609Y1154D03*
X609Y754D03*
X909Y1154D03*
X909Y754D03*
X809Y1154D03*
X809Y754D03*
X709Y1154D03*
X709Y754D03*
X509Y1154D03*
X509Y754D03*
X409Y1154D03*
X409Y754D03*
X309Y1154D03*
X309Y754D03*
X209Y1154D03*
X209Y754D03*
X109Y1154D03*
X109Y754D03*
G54D11*
X2309Y254D03*
X2209Y254D03*
X2109Y254D03*
X2009Y254D03*
X1109Y1604D03*
X1259Y1604D03*
X1409Y1604D03*
X1559Y1604D03*
X1709Y1604D03*
X1859Y1504D03*
X2009Y1504D03*
X2159Y1504D03*
X2309Y1504D03*
X109Y604D03*
X209Y604D03*
X309Y604D03*
X409Y604D03*
X509Y604D03*
X609Y604D03*
X709Y604D03*
X809Y604D03*
X909Y604D03*
X1009Y604D03*
X1109Y604D03*
X1209Y604D03*
X1309Y604D03*
X1409Y604D03*
X1509Y604D03*
X2509Y404D03*
X2409Y404D03*
X2309Y404D03*
X2209Y404D03*
X2109Y404D03*
X2009Y404D03*
X1909Y404D03*
X1809Y404D03*
X1709Y404D03*
X1609Y404D03*
X1509Y404D03*
X1409Y404D03*
X1309Y404D03*
X1209Y404D03*
X2459Y1354D03*
X2359Y1354D03*
X2259Y1354D03*
X2159Y1354D03*
X2059Y1354D03*
X1959Y1354D03*
X1859Y1354D03*
X1759Y1354D03*
X1659Y1354D03*
X1559Y1354D03*
X1459Y1354D03*
X1459Y754D03*
X1559Y754D03*
X1659Y754D03*
X1759Y754D03*
X1859Y754D03*
X1959Y754D03*
X2059Y754D03*
X2159Y754D03*
X2259Y754D03*
X2359Y754D03*
X2459Y754D03*
G54D12*
X2109Y104D03*
X2209Y104D03*
X2309Y104D03*
X2409Y104D03*
X2509Y104D03*
X1649Y2004D03*
X1549Y2004D03*
X1449Y2004D03*
X1349Y2004D03*
X1249Y2004D03*
X1149Y2004D03*
X1049Y2004D03*
X949Y2004D03*
X849Y2004D03*
X749Y2004D03*
X2509Y2004D03*
X2409Y2004D03*
X2309Y2004D03*
X2209Y2004D03*
X2109Y2004D03*
X2009Y2004D03*
X1909Y2004D03*
X1809Y2004D03*
X1209Y104D03*
X1109Y104D03*
X1309Y104D03*
X1409Y104D03*
X1509Y104D03*
X1609Y104D03*
X1709Y104D03*
X1809Y104D03*
X2009Y104D03*
G54D13*
X1468Y604D02*
X1451Y604D01*
D02*
X509Y714D02*
X509Y645D01*
D02*
X209Y714D02*
X209Y645D01*
D02*
X709Y714D02*
X709Y645D01*
D02*
X109Y645D02*
X109Y714D01*
D02*
X409Y714D02*
X409Y645D01*
D02*
X609Y714D02*
X609Y645D01*
D02*
X809Y714D02*
X809Y645D01*
D02*
X309Y714D02*
X309Y645D01*
D02*
X909Y714D02*
X909Y645D01*
D02*
X1410Y253D02*
X1410Y146D01*
D02*
X910Y253D02*
X1410Y253D01*
D02*
X910Y505D02*
X910Y253D01*
D02*
X1658Y505D02*
X910Y505D01*
D02*
X1575Y715D02*
X1658Y505D01*
D02*
X959Y1702D02*
X959Y1645D01*
D02*
X1158Y1804D02*
X959Y1702D01*
D02*
X1151Y1961D02*
X1158Y1804D01*
D02*
X611Y1602D02*
X1011Y1854D01*
D02*
X1011Y1854D02*
X1039Y1963D01*
D02*
X609Y1194D02*
X611Y1602D01*
D02*
X2409Y146D02*
X2409Y213D01*
D02*
X2509Y146D02*
X2509Y213D01*
D02*
X949Y1154D02*
X970Y1154D01*
D02*
X1009Y645D02*
X1009Y714D01*
D02*
X1110Y1155D02*
X1049Y1154D01*
D02*
X1109Y645D02*
X1110Y1155D01*
D02*
X1446Y715D02*
X1422Y643D01*
D02*
X1268Y604D02*
X1251Y604D01*
D02*
X1168Y604D02*
X1151Y604D01*
D02*
X1368Y604D02*
X1351Y604D01*
D02*
X1468Y404D02*
X1451Y404D01*
D02*
X1368Y404D02*
X1351Y404D01*
D02*
X1268Y404D02*
X1251Y404D01*
D02*
X2108Y1704D02*
X2109Y1961D01*
D02*
X2280Y1533D02*
X2108Y1704D01*
D02*
X2010Y1855D02*
X2009Y1961D01*
D02*
X2010Y1704D02*
X2010Y1855D01*
D02*
X2135Y1537D02*
X2010Y1704D01*
D02*
X1908Y1855D02*
X1909Y1961D01*
D02*
X1908Y1704D02*
X1908Y1855D01*
D02*
X1991Y1541D02*
X1908Y1704D01*
D02*
X1809Y1855D02*
X1809Y1961D01*
D02*
X1809Y1702D02*
X1809Y1855D01*
D02*
X1849Y1544D02*
X1809Y1702D01*
D02*
X1658Y1855D02*
X1652Y1961D01*
D02*
X1708Y1702D02*
X1658Y1855D01*
D02*
X1709Y1645D02*
X1708Y1702D01*
D02*
X1558Y1645D02*
X1550Y1961D01*
D02*
X1458Y1855D02*
X1452Y1961D01*
D02*
X1459Y1702D02*
X1458Y1855D01*
D02*
X1428Y1641D02*
X1459Y1702D01*
D02*
X1359Y1904D02*
X1354Y1962D01*
D02*
X1358Y1755D02*
X1359Y1904D01*
D02*
X1282Y1638D02*
X1358Y1755D01*
D02*
X1109Y1702D02*
X1109Y1645D01*
D02*
X1260Y1755D02*
X1109Y1702D01*
D02*
X1261Y1904D02*
X1260Y1755D01*
D02*
X1254Y1962D02*
X1261Y1904D01*
D02*
X1652Y104D02*
X1667Y104D01*
D02*
X1508Y253D02*
X1509Y146D01*
D02*
X1708Y253D02*
X1508Y253D01*
D02*
X1709Y363D02*
X1708Y253D01*
D02*
X2309Y213D02*
X2309Y146D01*
D02*
X2209Y213D02*
X2209Y146D01*
D02*
X149Y1154D02*
X170Y1154D01*
D02*
X249Y1154D02*
X270Y1154D01*
D02*
X349Y1154D02*
X370Y1154D01*
D02*
X449Y1154D02*
X470Y1154D01*
D02*
X549Y1154D02*
X570Y1154D01*
D02*
X649Y1154D02*
X670Y1154D01*
D02*
X749Y1154D02*
X770Y1154D01*
D02*
X849Y1154D02*
X870Y1154D01*
D02*
X1551Y404D02*
X1568Y404D01*
D02*
X1651Y404D02*
X1668Y404D01*
D02*
X1768Y404D02*
X1751Y404D01*
D02*
X1868Y404D02*
X1851Y404D01*
D02*
X1968Y404D02*
X1951Y404D01*
D02*
X2068Y404D02*
X2051Y404D01*
D02*
X2168Y404D02*
X2151Y404D01*
D02*
X2268Y404D02*
X2251Y404D01*
D02*
X2368Y404D02*
X2351Y404D01*
D02*
X2468Y404D02*
X2451Y404D01*
D02*
X2009Y146D02*
X2009Y213D01*
D02*
X2109Y146D02*
X2109Y213D01*
D02*
X2558Y953D02*
X2558Y1405D01*
D02*
X2558Y1405D02*
X2208Y1755D01*
D02*
X2208Y1755D02*
X2209Y1961D01*
D02*
X1760Y955D02*
X2558Y953D01*
D02*
X1759Y795D02*
X1760Y955D01*
D02*
X2660Y604D02*
X2660Y1454D01*
D02*
X2660Y1454D02*
X2308Y1805D01*
D02*
X2308Y1805D02*
X2309Y1961D01*
D02*
X1760Y604D02*
X2660Y604D01*
D02*
X1682Y720D02*
X1760Y604D01*
G54D14*
X1397Y1278D02*
X1445Y1278D01*
X1483Y1278D02*
X1517Y1278D01*
X1397Y1277D02*
X1445Y1277D01*
X1478Y1277D02*
X1518Y1277D01*
X1397Y1276D02*
X1445Y1276D01*
X1477Y1276D02*
X1518Y1276D01*
X1397Y1275D02*
X1445Y1275D01*
X1475Y1275D02*
X1518Y1275D01*
X1397Y1274D02*
X1445Y1274D01*
X1474Y1274D02*
X1518Y1274D01*
X1397Y1273D02*
X1445Y1273D01*
X1473Y1273D02*
X1518Y1273D01*
X1397Y1272D02*
X1445Y1272D01*
X1472Y1272D02*
X1518Y1272D01*
X1397Y1271D02*
X1445Y1271D01*
X1471Y1271D02*
X1518Y1271D01*
X1397Y1270D02*
X1445Y1270D01*
X1471Y1270D02*
X1518Y1270D01*
X1397Y1269D02*
X1445Y1269D01*
X1470Y1269D02*
X1518Y1269D01*
X1397Y1268D02*
X1445Y1268D01*
X1470Y1268D02*
X1518Y1268D01*
X1397Y1267D02*
X1406Y1267D01*
X1416Y1267D02*
X1426Y1267D01*
X1436Y1267D02*
X1445Y1267D01*
X1469Y1267D02*
X1480Y1267D01*
X1508Y1267D02*
X1518Y1267D01*
X1397Y1266D02*
X1406Y1266D01*
X1416Y1266D02*
X1426Y1266D01*
X1436Y1266D02*
X1445Y1266D01*
X1469Y1266D02*
X1479Y1266D01*
X1508Y1266D02*
X1518Y1266D01*
X1397Y1265D02*
X1406Y1265D01*
X1416Y1265D02*
X1426Y1265D01*
X1436Y1265D02*
X1445Y1265D01*
X1469Y1265D02*
X1478Y1265D01*
X1508Y1265D02*
X1518Y1265D01*
X1397Y1264D02*
X1406Y1264D01*
X1416Y1264D02*
X1426Y1264D01*
X1436Y1264D02*
X1445Y1264D01*
X1469Y1264D02*
X1478Y1264D01*
X1508Y1264D02*
X1518Y1264D01*
X1397Y1263D02*
X1405Y1263D01*
X1416Y1263D02*
X1426Y1263D01*
X1437Y1263D02*
X1445Y1263D01*
X1469Y1263D02*
X1478Y1263D01*
X1508Y1263D02*
X1518Y1263D01*
X1397Y1262D02*
X1405Y1262D01*
X1416Y1262D02*
X1426Y1262D01*
X1437Y1262D02*
X1445Y1262D01*
X1469Y1262D02*
X1478Y1262D01*
X1508Y1262D02*
X1518Y1262D01*
X1398Y1261D02*
X1404Y1261D01*
X1416Y1261D02*
X1426Y1261D01*
X1438Y1261D02*
X1444Y1261D01*
X1469Y1261D02*
X1478Y1261D01*
X1508Y1261D02*
X1518Y1261D01*
X1399Y1260D02*
X1403Y1260D01*
X1416Y1260D02*
X1426Y1260D01*
X1439Y1260D02*
X1442Y1260D01*
X1469Y1260D02*
X1478Y1260D01*
X1508Y1260D02*
X1518Y1260D01*
X1416Y1259D02*
X1426Y1259D01*
X1469Y1259D02*
X1478Y1259D01*
X1508Y1259D02*
X1518Y1259D01*
X1416Y1258D02*
X1426Y1258D01*
X1469Y1258D02*
X1478Y1258D01*
X1508Y1258D02*
X1518Y1258D01*
X1416Y1257D02*
X1426Y1257D01*
X1469Y1257D02*
X1478Y1257D01*
X1508Y1257D02*
X1518Y1257D01*
X1416Y1256D02*
X1426Y1256D01*
X1469Y1256D02*
X1478Y1256D01*
X1508Y1256D02*
X1518Y1256D01*
X1416Y1255D02*
X1426Y1255D01*
X1469Y1255D02*
X1479Y1255D01*
X1508Y1255D02*
X1518Y1255D01*
X1416Y1254D02*
X1426Y1254D01*
X1469Y1254D02*
X1480Y1254D01*
X1508Y1254D02*
X1518Y1254D01*
X1416Y1253D02*
X1426Y1253D01*
X1470Y1253D02*
X1481Y1253D01*
X1508Y1253D02*
X1518Y1253D01*
X1416Y1252D02*
X1426Y1252D01*
X1470Y1252D02*
X1518Y1252D01*
X1416Y1251D02*
X1426Y1251D01*
X1470Y1251D02*
X1518Y1251D01*
X1416Y1250D02*
X1426Y1250D01*
X1471Y1250D02*
X1518Y1250D01*
X1416Y1249D02*
X1426Y1249D01*
X1472Y1249D02*
X1518Y1249D01*
X1416Y1248D02*
X1426Y1248D01*
X1472Y1248D02*
X1518Y1248D01*
X1416Y1247D02*
X1426Y1247D01*
X1473Y1247D02*
X1518Y1247D01*
X1416Y1246D02*
X1426Y1246D01*
X1475Y1246D02*
X1518Y1246D01*
X1416Y1245D02*
X1426Y1245D01*
X1476Y1245D02*
X1518Y1245D01*
X1416Y1244D02*
X1426Y1244D01*
X1478Y1244D02*
X1518Y1244D01*
X1416Y1243D02*
X1426Y1243D01*
X1480Y1243D02*
X1518Y1243D01*
X1416Y1242D02*
X1426Y1242D01*
X1490Y1242D02*
X1500Y1242D01*
X1508Y1242D02*
X1518Y1242D01*
X1416Y1241D02*
X1426Y1241D01*
X1489Y1241D02*
X1500Y1241D01*
X1508Y1241D02*
X1518Y1241D01*
X1416Y1240D02*
X1426Y1240D01*
X1488Y1240D02*
X1499Y1240D01*
X1508Y1240D02*
X1518Y1240D01*
X1416Y1239D02*
X1426Y1239D01*
X1488Y1239D02*
X1499Y1239D01*
X1508Y1239D02*
X1518Y1239D01*
X1416Y1238D02*
X1426Y1238D01*
X1487Y1238D02*
X1498Y1238D01*
X1508Y1238D02*
X1518Y1238D01*
X1416Y1237D02*
X1426Y1237D01*
X1487Y1237D02*
X1497Y1237D01*
X1508Y1237D02*
X1518Y1237D01*
X1416Y1236D02*
X1426Y1236D01*
X1486Y1236D02*
X1497Y1236D01*
X1508Y1236D02*
X1518Y1236D01*
X1416Y1235D02*
X1426Y1235D01*
X1485Y1235D02*
X1496Y1235D01*
X1508Y1235D02*
X1518Y1235D01*
X1416Y1234D02*
X1426Y1234D01*
X1485Y1234D02*
X1496Y1234D01*
X1508Y1234D02*
X1518Y1234D01*
X1416Y1233D02*
X1426Y1233D01*
X1484Y1233D02*
X1495Y1233D01*
X1508Y1233D02*
X1518Y1233D01*
X1416Y1232D02*
X1426Y1232D01*
X1484Y1232D02*
X1494Y1232D01*
X1508Y1232D02*
X1518Y1232D01*
X1416Y1231D02*
X1426Y1231D01*
X1483Y1231D02*
X1494Y1231D01*
X1508Y1231D02*
X1518Y1231D01*
X1416Y1230D02*
X1426Y1230D01*
X1483Y1230D02*
X1493Y1230D01*
X1508Y1230D02*
X1518Y1230D01*
X1416Y1229D02*
X1426Y1229D01*
X1482Y1229D02*
X1493Y1229D01*
X1508Y1229D02*
X1518Y1229D01*
X1416Y1228D02*
X1426Y1228D01*
X1481Y1228D02*
X1492Y1228D01*
X1508Y1228D02*
X1518Y1228D01*
X1416Y1227D02*
X1426Y1227D01*
X1481Y1227D02*
X1492Y1227D01*
X1508Y1227D02*
X1518Y1227D01*
X1416Y1226D02*
X1426Y1226D01*
X1480Y1226D02*
X1491Y1226D01*
X1508Y1226D02*
X1518Y1226D01*
X1416Y1225D02*
X1426Y1225D01*
X1480Y1225D02*
X1490Y1225D01*
X1508Y1225D02*
X1518Y1225D01*
X1416Y1224D02*
X1426Y1224D01*
X1479Y1224D02*
X1490Y1224D01*
X1508Y1224D02*
X1518Y1224D01*
X1416Y1223D02*
X1426Y1223D01*
X1478Y1223D02*
X1489Y1223D01*
X1508Y1223D02*
X1518Y1223D01*
X1416Y1222D02*
X1426Y1222D01*
X1478Y1222D02*
X1489Y1222D01*
X1508Y1222D02*
X1518Y1222D01*
X1416Y1221D02*
X1426Y1221D01*
X1477Y1221D02*
X1488Y1221D01*
X1508Y1221D02*
X1518Y1221D01*
X1416Y1220D02*
X1426Y1220D01*
X1477Y1220D02*
X1487Y1220D01*
X1508Y1220D02*
X1518Y1220D01*
X1416Y1219D02*
X1426Y1219D01*
X1476Y1219D02*
X1487Y1219D01*
X1508Y1219D02*
X1518Y1219D01*
X1416Y1218D02*
X1426Y1218D01*
X1476Y1218D02*
X1486Y1218D01*
X1508Y1218D02*
X1518Y1218D01*
X1416Y1217D02*
X1426Y1217D01*
X1475Y1217D02*
X1486Y1217D01*
X1508Y1217D02*
X1518Y1217D01*
X1416Y1216D02*
X1426Y1216D01*
X1474Y1216D02*
X1485Y1216D01*
X1508Y1216D02*
X1518Y1216D01*
X1416Y1215D02*
X1426Y1215D01*
X1474Y1215D02*
X1485Y1215D01*
X1508Y1215D02*
X1518Y1215D01*
X1416Y1214D02*
X1426Y1214D01*
X1473Y1214D02*
X1484Y1214D01*
X1508Y1214D02*
X1518Y1214D01*
X1416Y1213D02*
X1426Y1213D01*
X1473Y1213D02*
X1483Y1213D01*
X1508Y1213D02*
X1518Y1213D01*
X1416Y1212D02*
X1426Y1212D01*
X1472Y1212D02*
X1483Y1212D01*
X1508Y1212D02*
X1518Y1212D01*
X1416Y1211D02*
X1426Y1211D01*
X1471Y1211D02*
X1482Y1211D01*
X1508Y1211D02*
X1518Y1211D01*
X1416Y1210D02*
X1426Y1210D01*
X1471Y1210D02*
X1482Y1210D01*
X1508Y1210D02*
X1518Y1210D01*
X1416Y1209D02*
X1426Y1209D01*
X1470Y1209D02*
X1481Y1209D01*
X1508Y1209D02*
X1518Y1209D01*
X1416Y1208D02*
X1426Y1208D01*
X1470Y1208D02*
X1480Y1208D01*
X1508Y1208D02*
X1518Y1208D01*
X1416Y1207D02*
X1426Y1207D01*
X1469Y1207D02*
X1480Y1207D01*
X1508Y1207D02*
X1518Y1207D01*
X1416Y1206D02*
X1426Y1206D01*
X1469Y1206D02*
X1479Y1206D01*
X1508Y1206D02*
X1518Y1206D01*
X1416Y1205D02*
X1425Y1205D01*
X1469Y1205D02*
X1479Y1205D01*
X1509Y1205D02*
X1518Y1205D01*
X1417Y1204D02*
X1425Y1204D01*
X1469Y1204D02*
X1478Y1204D01*
X1509Y1204D02*
X1517Y1204D01*
X1417Y1203D02*
X1425Y1203D01*
X1469Y1203D02*
X1478Y1203D01*
X1509Y1203D02*
X1517Y1203D01*
X1418Y1202D02*
X1424Y1202D01*
X1470Y1202D02*
X1477Y1202D01*
X1510Y1202D02*
X1516Y1202D01*
X1419Y1201D02*
X1423Y1201D01*
X1471Y1201D02*
X1476Y1201D01*
X1511Y1201D02*
X1515Y1201D01*
X1389Y926D02*
X1438Y926D01*
X1504Y926D02*
X1508Y926D01*
X1389Y925D02*
X1438Y925D01*
X1503Y925D02*
X1509Y925D01*
X1389Y924D02*
X1438Y924D01*
X1502Y924D02*
X1510Y924D01*
X1389Y923D02*
X1438Y923D01*
X1502Y923D02*
X1510Y923D01*
X1389Y922D02*
X1438Y922D01*
X1501Y922D02*
X1510Y922D01*
X1389Y921D02*
X1438Y921D01*
X1501Y921D02*
X1510Y921D01*
X1389Y920D02*
X1438Y920D01*
X1501Y920D02*
X1510Y920D01*
X1389Y919D02*
X1438Y919D01*
X1501Y919D02*
X1510Y919D01*
X1389Y918D02*
X1438Y918D01*
X1501Y918D02*
X1510Y918D01*
X1389Y917D02*
X1438Y917D01*
X1501Y917D02*
X1510Y917D01*
X1389Y916D02*
X1399Y916D01*
X1409Y916D02*
X1418Y916D01*
X1429Y916D02*
X1438Y916D01*
X1501Y916D02*
X1510Y916D01*
X1389Y915D02*
X1399Y915D01*
X1409Y915D02*
X1418Y915D01*
X1429Y915D02*
X1438Y915D01*
X1501Y915D02*
X1510Y915D01*
X1389Y914D02*
X1399Y914D01*
X1409Y914D02*
X1418Y914D01*
X1429Y914D02*
X1438Y914D01*
X1501Y914D02*
X1510Y914D01*
X1390Y913D02*
X1398Y913D01*
X1409Y913D02*
X1418Y913D01*
X1429Y913D02*
X1438Y913D01*
X1501Y913D02*
X1510Y913D01*
X1390Y912D02*
X1398Y912D01*
X1409Y912D02*
X1418Y912D01*
X1429Y912D02*
X1438Y912D01*
X1501Y912D02*
X1510Y912D01*
X1390Y911D02*
X1398Y911D01*
X1409Y911D02*
X1418Y911D01*
X1430Y911D02*
X1438Y911D01*
X1501Y911D02*
X1510Y911D01*
X1391Y910D02*
X1397Y910D01*
X1409Y910D02*
X1418Y910D01*
X1431Y910D02*
X1437Y910D01*
X1501Y910D02*
X1510Y910D01*
X1392Y909D02*
X1396Y909D01*
X1409Y909D02*
X1418Y909D01*
X1432Y909D02*
X1436Y909D01*
X1501Y909D02*
X1510Y909D01*
X1409Y908D02*
X1418Y908D01*
X1501Y908D02*
X1510Y908D01*
X1409Y907D02*
X1418Y907D01*
X1501Y907D02*
X1510Y907D01*
X1409Y906D02*
X1418Y906D01*
X1501Y906D02*
X1510Y906D01*
X1409Y905D02*
X1418Y905D01*
X1501Y905D02*
X1510Y905D01*
X1409Y904D02*
X1418Y904D01*
X1501Y904D02*
X1510Y904D01*
X1409Y903D02*
X1418Y903D01*
X1501Y903D02*
X1510Y903D01*
X1409Y902D02*
X1418Y902D01*
X1501Y902D02*
X1510Y902D01*
X1409Y901D02*
X1418Y901D01*
X1501Y901D02*
X1510Y901D01*
X1409Y900D02*
X1418Y900D01*
X1501Y900D02*
X1510Y900D01*
X1409Y899D02*
X1418Y899D01*
X1501Y899D02*
X1510Y899D01*
X1409Y898D02*
X1418Y898D01*
X1501Y898D02*
X1510Y898D01*
X1409Y897D02*
X1418Y897D01*
X1501Y897D02*
X1510Y897D01*
X1409Y896D02*
X1418Y896D01*
X1501Y896D02*
X1510Y896D01*
X1409Y895D02*
X1418Y895D01*
X1501Y895D02*
X1510Y895D01*
X1409Y894D02*
X1418Y894D01*
X1501Y894D02*
X1510Y894D01*
X1409Y893D02*
X1418Y893D01*
X1501Y893D02*
X1510Y893D01*
X1409Y892D02*
X1418Y892D01*
X1501Y892D02*
X1510Y892D01*
X1409Y891D02*
X1418Y891D01*
X1501Y891D02*
X1510Y891D01*
X1409Y890D02*
X1418Y890D01*
X1501Y890D02*
X1510Y890D01*
X1409Y889D02*
X1418Y889D01*
X1501Y889D02*
X1510Y889D01*
X1409Y888D02*
X1418Y888D01*
X1501Y888D02*
X1510Y888D01*
X1409Y887D02*
X1418Y887D01*
X1501Y887D02*
X1510Y887D01*
X1409Y886D02*
X1418Y886D01*
X1501Y886D02*
X1510Y886D01*
X1409Y885D02*
X1418Y885D01*
X1501Y885D02*
X1510Y885D01*
X1409Y884D02*
X1418Y884D01*
X1501Y884D02*
X1510Y884D01*
X1409Y883D02*
X1418Y883D01*
X1501Y883D02*
X1510Y883D01*
X1409Y882D02*
X1418Y882D01*
X1501Y882D02*
X1510Y882D01*
X1409Y881D02*
X1418Y881D01*
X1501Y881D02*
X1510Y881D01*
X1409Y880D02*
X1418Y880D01*
X1501Y880D02*
X1510Y880D01*
X1409Y879D02*
X1418Y879D01*
X1501Y879D02*
X1510Y879D01*
X1409Y878D02*
X1418Y878D01*
X1501Y878D02*
X1510Y878D01*
X1409Y877D02*
X1418Y877D01*
X1501Y877D02*
X1510Y877D01*
X1409Y876D02*
X1418Y876D01*
X1501Y876D02*
X1510Y876D01*
X1409Y875D02*
X1418Y875D01*
X1501Y875D02*
X1510Y875D01*
X1409Y874D02*
X1418Y874D01*
X1501Y874D02*
X1510Y874D01*
X1409Y873D02*
X1418Y873D01*
X1501Y873D02*
X1510Y873D01*
X1409Y872D02*
X1418Y872D01*
X1501Y872D02*
X1510Y872D01*
X1409Y871D02*
X1418Y871D01*
X1501Y871D02*
X1510Y871D01*
X1409Y870D02*
X1418Y870D01*
X1501Y870D02*
X1510Y870D01*
X1409Y869D02*
X1418Y869D01*
X1501Y869D02*
X1510Y869D01*
X1409Y868D02*
X1418Y868D01*
X1501Y868D02*
X1510Y868D01*
X1409Y867D02*
X1418Y867D01*
X1501Y867D02*
X1510Y867D01*
X1409Y866D02*
X1418Y866D01*
X1501Y866D02*
X1510Y866D01*
X1409Y865D02*
X1418Y865D01*
X1501Y865D02*
X1510Y865D01*
X1409Y864D02*
X1418Y864D01*
X1501Y864D02*
X1510Y864D01*
X1409Y863D02*
X1418Y863D01*
X1501Y863D02*
X1510Y863D01*
X1409Y862D02*
X1418Y862D01*
X1501Y862D02*
X1510Y862D01*
X1409Y861D02*
X1418Y861D01*
X1501Y861D02*
X1510Y861D01*
X1409Y860D02*
X1418Y860D01*
X1501Y860D02*
X1510Y860D01*
X1409Y859D02*
X1418Y859D01*
X1467Y859D02*
X1510Y859D01*
X1409Y858D02*
X1418Y858D01*
X1464Y858D02*
X1510Y858D01*
X1409Y857D02*
X1418Y857D01*
X1463Y857D02*
X1510Y857D01*
X1409Y856D02*
X1418Y856D01*
X1462Y856D02*
X1510Y856D01*
X1409Y855D02*
X1418Y855D01*
X1462Y855D02*
X1510Y855D01*
X1409Y854D02*
X1418Y854D01*
X1462Y854D02*
X1510Y854D01*
X1410Y853D02*
X1418Y853D01*
X1462Y853D02*
X1510Y853D01*
X1410Y852D02*
X1418Y852D01*
X1462Y852D02*
X1510Y852D01*
X1410Y851D02*
X1417Y851D01*
X1463Y851D02*
X1510Y851D01*
X1411Y850D02*
X1416Y850D01*
X1464Y850D02*
X1510Y850D01*
X1414Y849D02*
X1414Y849D01*
X1466Y849D02*
X1510Y849D01*
D02*
G04 End of Copper0*
M02*