G04 MADE WITH FRITZING*
G04 WWW.FRITZING.ORG*
G04 DOUBLE SIDED*
G04 HOLES PLATED*
G04 CONTOUR ON CENTER OF CONTOUR VECTOR*
%ASAXBY*%
%FSLAX23Y23*%
%MOIN*%
%OFA0B0*%
%SFA1.0B1.0*%
%ADD10C,0.085000*%
%ADD11C,0.088000*%
%ADD12C,0.147795*%
%ADD13C,0.135984*%
%ADD14R,0.135984X0.135984*%
%LNMASK0*%
G90*
G70*
G54D10*
X981Y879D03*
X581Y879D03*
X981Y1029D03*
X581Y1029D03*
X981Y1179D03*
X581Y1179D03*
G54D11*
X381Y879D03*
X381Y979D03*
X381Y1079D03*
X381Y1179D03*
X231Y879D03*
X231Y979D03*
X231Y1079D03*
X231Y1179D03*
G54D12*
X777Y644D03*
X777Y488D03*
X777Y332D03*
G54D11*
X981Y1429D03*
X881Y1429D03*
X781Y1429D03*
X681Y1429D03*
X581Y1429D03*
X481Y1429D03*
X381Y1429D03*
X281Y1429D03*
X181Y1429D03*
X681Y1979D03*
X581Y1979D03*
X481Y1979D03*
X381Y1979D03*
X281Y1979D03*
X181Y1979D03*
X81Y1979D03*
X843Y79D03*
X743Y79D03*
X643Y79D03*
X543Y79D03*
X443Y79D03*
X343Y79D03*
X243Y79D03*
X143Y79D03*
X1343Y75D03*
X1243Y75D03*
X1143Y75D03*
X1043Y75D03*
X1343Y1979D03*
X1243Y1979D03*
X1143Y1979D03*
X1043Y1979D03*
X943Y1979D03*
X843Y1979D03*
G54D13*
X331Y329D03*
X331Y529D03*
G54D10*
X781Y1679D03*
X1131Y1779D03*
X1281Y629D03*
X981Y1279D03*
G54D14*
X331Y329D03*
G04 End of Mask0*
M02*