; NON-PLATED HOLES START AT T1
; THROUGH (PLATED) HOLES START AT T100
M48
INCH
T100C0.038000
T101C0.098425
T102C0.047244
T103C0.035000
%
T100
X007812Y014286
X012428Y000748
X002312Y008786
X011428Y000748
X003812Y014286
X008428Y000786
X010428Y019786
X003812Y008786
X011428Y019786
X002428Y000786
X008812Y014286
X002312Y010786
X010428Y000748
X000812Y019786
X008428Y019786
X002812Y014286
X005428Y000786
X003812Y019786
X004812Y014286
X003428Y000786
X001812Y014286
X013428Y000748
X002312Y011786
X006812Y019786
X004428Y000786
X007428Y000786
X013428Y019786
X002312Y009786
X006428Y000786
X005812Y014286
X003812Y010786
X005812Y019786
X003812Y011786
X001812Y019786
X001428Y000786
X009812Y014286
X012428Y019786
X004812Y019786
X003812Y009786
X009428Y019786
X002812Y019786
X006812Y014286
T101
X007773Y004878
X007773Y003318
X007773Y006438
T102
X003312Y005286
X003312Y003286
T103
X007812Y016786
X009812Y012786
X009812Y011786
X009812Y008786
X012812Y006286
X005812Y011786
X005812Y010286
X009812Y010286
X005812Y008786
X011312Y017786
T00
M30
