G04 MADE WITH FRITZING*
G04 WWW.FRITZING.ORG*
G04 DOUBLE SIDED*
G04 HOLES PLATED*
G04 CONTOUR ON CENTER OF CONTOUR VECTOR*
%ASAXBY*%
%FSLAX23Y23*%
%MOIN*%
%OFA0B0*%
%SFA1.0B1.0*%
%ADD10C,0.075000*%
%ADD11C,0.078000*%
%ADD12C,0.137795*%
%ADD13C,0.125984*%
%ADD14R,0.125984X0.125984*%
%ADD15C,0.048000*%
%LNCOPPER0*%
G90*
G70*
G54D10*
X981Y879D03*
X581Y879D03*
X981Y1029D03*
X581Y1029D03*
X981Y1179D03*
X581Y1179D03*
G54D11*
X381Y879D03*
X381Y979D03*
X381Y1079D03*
X381Y1179D03*
X231Y879D03*
X231Y979D03*
X231Y1079D03*
X231Y1179D03*
G54D12*
X777Y644D03*
X777Y488D03*
X777Y332D03*
G54D11*
X981Y1429D03*
X881Y1429D03*
X781Y1429D03*
X681Y1429D03*
X581Y1429D03*
X481Y1429D03*
X381Y1429D03*
X281Y1429D03*
X181Y1429D03*
X681Y1979D03*
X581Y1979D03*
X481Y1979D03*
X381Y1979D03*
X281Y1979D03*
X181Y1979D03*
X81Y1979D03*
X843Y79D03*
X743Y79D03*
X643Y79D03*
X543Y79D03*
X443Y79D03*
X343Y79D03*
X243Y79D03*
X143Y79D03*
X1343Y75D03*
X1243Y75D03*
X1143Y75D03*
X1043Y75D03*
X1343Y1979D03*
X1243Y1979D03*
X1143Y1979D03*
X1043Y1979D03*
X943Y1979D03*
X843Y1979D03*
G54D13*
X331Y329D03*
X331Y529D03*
G54D10*
X781Y1679D03*
X1131Y1779D03*
X1281Y629D03*
X981Y1279D03*
G54D14*
X331Y329D03*
G54D15*
X272Y979D02*
X340Y979D01*
D02*
X340Y1179D02*
X272Y1179D01*
D02*
X340Y1079D02*
X272Y1079D01*
D02*
X340Y879D02*
X272Y879D01*
D02*
X542Y1179D02*
X422Y1179D01*
D02*
X543Y1038D02*
X421Y1069D01*
D02*
X542Y879D02*
X422Y879D01*
D02*
X181Y1470D02*
X181Y1937D01*
D02*
X281Y1470D02*
X281Y1937D01*
D02*
X381Y1470D02*
X381Y1937D01*
D02*
X481Y1779D02*
X682Y1878D01*
D02*
X682Y1878D02*
X681Y1937D01*
D02*
X481Y1470D02*
X481Y1779D01*
D02*
X781Y1470D02*
X781Y1639D01*
D02*
X880Y1277D02*
X881Y1387D01*
D02*
X81Y1277D02*
X880Y1277D01*
D02*
X81Y1937D02*
X81Y1277D01*
D02*
X81Y1937D02*
X81Y1277D01*
D02*
X81Y1277D02*
X81Y980D01*
D02*
X81Y980D02*
X190Y979D01*
D02*
X530Y178D02*
X1282Y178D01*
D02*
X538Y120D02*
X530Y178D01*
D02*
X1282Y178D02*
X1281Y589D01*
D02*
X981Y1387D02*
X981Y1318D01*
D02*
X706Y331D02*
X377Y329D01*
D02*
X706Y494D02*
X377Y524D01*
D02*
X830Y1878D02*
X583Y1729D01*
D02*
X583Y1729D02*
X581Y1459D01*
D02*
X838Y1938D02*
X830Y1878D01*
D02*
X1131Y1578D02*
X1131Y1178D01*
D02*
X933Y1578D02*
X1131Y1578D01*
D02*
X1131Y1178D02*
X1010Y1179D01*
D02*
X942Y1937D02*
X933Y1578D01*
D02*
X1230Y1680D02*
X1032Y1680D01*
D02*
X1230Y1029D02*
X1230Y1680D01*
D02*
X1032Y1680D02*
X1041Y1937D01*
D02*
X1010Y1029D02*
X1230Y1029D01*
D02*
X1332Y1779D02*
X1230Y1779D01*
D02*
X1230Y1779D02*
X1240Y1938D01*
D02*
X1332Y878D02*
X1332Y1779D01*
D02*
X1010Y879D02*
X1332Y878D01*
D02*
X1140Y1938D02*
X1134Y1818D01*
G04 End of Copper0*
M02*